{"title":"Byzantium 2012 HDRip x264 AAC-KiSSMYACE","uid":8772900,"size":773462365,"categoryP":"video","categoryS":"movies","magnet":"?xt=urn:btih:f30109d1d0b9557fc3d366678a34750c9b35cbe0&amp;dn=Byzantium+2012+HDRip+x264+AAC-KiSSMYACE&amp;tr=udp%3A%2F%2Ftracker.openbittorrent.com%3A80&amp;tr=udp%3A%2F%2Fopen.demonii.com%3A1337&amp;tr=udp%3A%2F%2Ftracker.coppersurfer.tk%3A6969&amp;tr=udp%3A%2F%2Fexodus.desync.com%3A6969","seeders":1,"leechers":0,"uploader":"srkfan","files":3,"time":1375492192,"description":"[b]SilverTorrent - Clean And Verified Torrents Download[/b]\n\n------------------------------------------------------ &lt;a href=&quot;\nhttp://img196.imageshack.us/img196/4263/6wkc.jpg&quot; rel=&quot;nofollow&quot; target=&quot;_NEW&quot;&gt;\nhttp://img196.imageshack.us/img196/4263/6wkc.jpg&lt;/a&gt;\n\n\nSource: 720p.WEB-DL.DD5.1.H.264-ELiTE [THANKS]\n &lt;a href=&quot;\nhttp://www.imdb.com/title/tt1531901/&quot; rel=&quot;nofollow&quot; target=&quot;_NEW&quot;&gt;\nhttp://www.imdb.com/title/tt1531901/&lt;/a&gt;\n\nResidents of a coastal town learn, with deathly consequences, the secret shared by the two mysterious women who have sought shelter at a local resort.\n\nGeneral\nComplete name                            : Byzantium 2012 HDRip x264 AAC-KiSSMYACE.mp4\nFormat                                   : MPEG-4\nFormat profile                           : Base Media\nCodec ID                                 : isom\nFile size                                : 733 MiB\nDuration                                 : 1h 58mn\nOverall bit rate mode                    : Variable\nOverall bit rate                         : 867 Kbps\nEncoded date                             : UTC 2013-08-02 22:26:23\nTagged date                              : UTC 2013-08-02 22:26:23\n\nVideo\nID                                       : 1\nFormat                                   : AVC\nFormat/Info                              : Advanced Video Codec\nFormat profile                           : &lt;a class=&quot;__cf_email__&quot; href=&quot;/cdn-cgi/l/email-protection&quot; data-cfemail=&quot;155d7c727d5559213b24&quot;&gt;[email&amp;#160;protected]&lt;/a&gt;&lt;script cf-hash='f9e31' type=&quot;text/javascript&quot;&gt;\n/* &lt;![CDATA[ */!function(){try{var t=&quot;currentScript&quot;in document?document.currentScript:function(){for(var t=document.getElementsByTagName(&quot;script&quot;),e=t.length;e--;)if(t[e].getAttribute(&quot;cf-hash&quot;))return t[e]}();if(t&amp;&amp;t.previousSibling){var e,r,n,i,c=t.previousSibling,a=c.getAttribute(&quot;data-cfemail&quot;);if(a){for(e=&quot;&quot;,r=parseInt(a.substr(0,2),16),n=2;a.length-n;n+=2)i=parseInt(a.substr(n,2),16)^r,e+=String.fromCharCode(i);e=document.createTextNode(e),c.parentNode.replaceChild(e,c)}}}catch(u){}}();/* ]]&gt; */&lt;/script&gt;\nFormat settings, CABAC                   : Yes\nFormat settings, ReFrames                : 3 frames\nCodec ID                                 : avc1\nCodec ID/Info                            : Advanced Video Coding\nDuration                                 : 1h 58mn\nBit rate mode                            : Variable\nBit rate                                 : 523 Kbps\nMaximum bit rate                         : 40.0 Mbps\nWidth                                    : 720 pixels\nHeight                                   : 304 pixels\nDisplay aspect ratio                     : 2.35:1\nFrame rate mode                          : Constant\nFrame rate                               : 24.000 fps\nColor space                              : YUV\nChroma subsampling                       : 4:2:0\nBit depth                                : 8 bits\nScan type                                : Progressive\nBits/(Pixel*Frame)                       : 0.100\nStream size                              : 442 MiB (60%)\nWriting library                          : x264 core 135 r2345 f0c1c53\n\nAudio\nID                                       : 2\nFormat                                   : AAC\nFormat/Info                              : Advanced Audio Codec\nFormat profile                           : LC\nCodec ID                                 : 40\nDuration                                 : 1h 58mn\nBit rate mode                            : Variable\nBit rate                                 : 340 Kbps\nMaximum bit rate                         : 396 Kbps\nChannel(s)                               : 6 channels\nChannel positions                        : Front: L C R, Side: L R, LFE\nSampling rate                            : 48.0 KHz\nCompression mode                         : Lossy\nStream size                              : 288 MiB (39%)\nLanguage                                 : English\nEncoded date                             : UTC 2013-08-02 21:58:32\nTagged date                              : UTC 2013-08-02 22:26:41\n &lt;a href=&quot;\nhttp://img801.imageshack.us/img801/4168/dfrt.png&quot; rel=&quot;nofollow&quot; target=&quot;_NEW&quot;&gt;\nhttp://img801.imageshack.us/img801/4168/dfrt.png&lt;/a&gt; &lt;a href=&quot;\nhttp://img689.imageshack.us/img689/8471/l1ax.png&quot; rel=&quot;nofollow&quot; target=&quot;_NEW&quot;&gt;\nhttp://img689.imageshack.us/img689/8471/l1ax.png&lt;/a&gt; &lt;a href=&quot;\nhttp://img20.imageshack.us/img20/7015/6nc.png&quot; rel=&quot;nofollow&quot; target=&quot;_NEW&quot;&gt;\nhttp://img20.imageshack.us/img20/7015/6nc.png&lt;/a&gt; &lt;a href=&quot;\nhttp://img7.imageshack.us/img7/1337/2lr5.png&quot; rel=&quot;nofollow&quot; target=&quot;_NEW&quot;&gt;\nhttp://img7.imageshack.us/img7/1337/2lr5.png&lt;/a&gt; &lt;a href=&quot;\nhttp://img15.imageshack.us/img15/1926/1x5g.png&quot; rel=&quot;nofollow&quot; target=&quot;_NEW&quot;&gt;\nhttp://img15.imageshack.us/img15/1926/1x5g.png&lt;/a&gt;","torrent":{"xt":"urn:btih:f30109d1d0b9557fc3d366678a34750c9b35cbe0","amp;dn":"Byzantium+2012+HDRip+x264+AAC-KiSSMYACE","amp;tr":["udp%3A%2F%2Ftracker.openbittorrent.com%3A80","udp%3A%2F%2Fopen.demonii.com%3A1337","udp%3A%2F%2Ftracker.coppersurfer.tk%3A6969","udp%3A%2F%2Fexodus.desync.com%3A6969"],"infoHash":"f30109d1d0b9557fc3d366678a34750c9b35cbe0","infoHashBuffer":{"type":"Buffer","data":[243,1,9,209,208,185,85,127,195,211,102,103,138,52,117,12,155,53,203,224]},"announce":[],"urlList":[]}}